<svg xmlns="http://www.w3.org/2000/svg" width="74.99" height="74.989" viewBox="0 0 74.99 74.989">
  <g id="search_1_" data-name="search (1)" transform="translate(0 -0.001)">
    <g id="Group_1897" data-name="Group 1897" transform="translate(0 0.001)">
      <g id="Group_1896" data-name="Group 1896" transform="translate(0 0)">
        <path id="Path_741" data-name="Path 741" d="M57.3,17.687a2.2,2.2,0,0,0-3.107,0L46.43,25.455l-7.767-7.767a2.2,2.2,0,1,0-3.107,3.107l7.767,7.767-7.767,7.767a2.2,2.2,0,0,0,3.107,3.107l7.767-7.767L54.2,39.436A2.2,2.2,0,0,0,57.3,36.329l-7.767-7.767L57.3,20.794a2.2,2.2,0,0,0,0-3.107ZM46.43,0A28.545,28.545,0,0,0,24.75,47.134l-2.972,2.972-1.553-1.553a2.2,2.2,0,0,0-3.107,0L.644,65.027a2.2,2.2,0,0,0,0,3.107l6.213,6.213a2.2,2.2,0,0,0,3.107,0L26.439,57.872a2.2,2.2,0,0,0,0-3.107l-1.553-1.553,2.972-2.972A28.555,28.555,0,1,0,46.43,0ZM8.411,69.687,5.3,66.581,18.672,53.213l3.106,3.106ZM46.43,52.728A24.167,24.167,0,1,1,70.6,28.562,24.194,24.194,0,0,1,46.43,52.728Z" transform="translate(0 -0.001)" fill="#e0e0e0"/>
      </g>
    </g>
  </g>
</svg>
